HIERARCHY
ROOT hips
{
  OFFSET 0 10.6860622 2.3727825e-15
  CHANNELS 6 Xposition Yposition Zposition Yrotation Xrotation Zrotation
  JOINT leftUpperLeg
  {
    OFFSET 0.6642549969 -0.9402397400000004 0
    CHANNELS 3 Yrotation Xrotation Zrotation
    JOINT leftLowerLeg
    {
      OFFSET 0 -3.997221335632195 0
      CHANNELS 3 Yrotation Xrotation Zrotation
      JOINT leftFoot
      {
        OFFSET -0.13777839790000004 -4.6145792000000005 -0.22186036399999998
        CHANNELS 3 Yrotation Xrotation Zrotation
        JOINT leftToes
        {
          OFFSET -0.03777410834999995 -0.9130806927000008 0.85230013
          CHANNELS 3 Yrotation Xrotation Zrotation
          End Site
          {
            OFFSET -0.03777410834999995 -0.9130806927000008 0.85230013
          }
        }
      }
    }
  }
  JOINT rightUpperLeg
  {
    OFFSET -0.6642778626 -0.9402397400000004 0
    CHANNELS 3 Yrotation Xrotation Zrotation
    JOINT rightLowerLeg
    {
      OFFSET 0 -3.997221452859387 0
      CHANNELS 3 Yrotation Xrotation Zrotation
      JOINT rightFoot
      {
        OFFSET 0.1377926176 -4.6145792000000005 -0.22185782299999995
        CHANNELS 3 Yrotation Xrotation Zrotation
        JOINT rightToes
        {
          OFFSET 0.037780746850000047 -0.9130806927000008 0.85230167
          CHANNELS 3 Yrotation Xrotation Zrotation
          End Site
          {
            OFFSET 0.037780746850000047 -0.9130806927000008 0.85230167
          }
        }
      }
    }
  }
  JOINT spine
  {
    OFFSET 0 0.13988381660000015 0
    CHANNELS 3 Yrotation Xrotation Zrotation
    JOINT chest
    {
      OFFSET 0 0.6191039003973773 0
      CHANNELS 3 Yrotation Xrotation Zrotation
      JOINT upperChest
      {
        OFFSET 0 0.9855186130586943 0
        CHANNELS 3 Yrotation Xrotation Zrotation
        JOINT leftShoulder
        {
          OFFSET 0.1807663869 1.5087829790000005 0
          CHANNELS 3 Yrotation Xrotation Zrotation
          JOINT leftUpperArm
          {
            OFFSET 0.5985063006419806 0 0
            CHANNELS 3 Yrotation Xrotation Zrotation
            JOINT leftLowerArm
            {
              OFFSET 2.2993332369501065 0 0
              CHANNELS 3 Yrotation Xrotation Zrotation
              JOINT leftHand
              {
                OFFSET 2.395047042602395 0 0
                CHANNELS 3 Yrotation Xrotation Zrotation
                JOINT leftIndexProximal
                {
                  OFFSET 0.5766295810000004 0.04556643899499946 0.17265095988184
                  CHANNELS 3 Yrotation Xrotation Zrotation
                  JOINT leftIndexIntermediate
                  {
                    OFFSET 0.2957229000000008 -0.019352197700001517 -0.007932640616999987
                    CHANNELS 3 Yrotation Xrotation Zrotation
                    JOINT leftIndexDistal
                    {
                      OFFSET 0.19008243099999922 -0.012484908149998475 -0.002786250786000012
                      CHANNELS 3 Yrotation Xrotation Zrotation
                      End Site
                      {
                        OFFSET 0.19008243099999922 -0.012484908149998475 -0.002786250786000012
                      }
                    }
                  }
                }
                JOINT leftMiddleProximal
                {
                  OFFSET 0.5834975091000001 0.0524350405149987 0.02204081888183999
                  CHANNELS 3 Yrotation Xrotation Zrotation
                  JOINT leftMiddleIntermediate
                  {
                    OFFSET 0.33880573540000003 -0.019871473270000717 -0.00000971183179999946
                    CHANNELS 3 Yrotation Xrotation Zrotation
                    JOINT leftMiddleDistal
                    {
                      OFFSET 0.20676022730000088 -0.012221336379999448 0.0001471936708000235
                      CHANNELS 3 Yrotation Xrotation Zrotation
                      End Site
                      {
                        OFFSET 0.20676022730000088 -0.012221336379999448 0.0001471936708000235
                      }
                    }
                  }
                }
                JOINT leftLittleProximal
                {
                  OFFSET 0.5344154683999995 -0.012880921405001189 -0.24414037221816004
                  CHANNELS 3 Yrotation Xrotation Zrotation
                  JOINT leftLittleIntermediate
                  {
                    OFFSET 0.21758961730000093 -0.011650919939999227 0.011893592810000034
                    CHANNELS 3 Yrotation Xrotation Zrotation
                    JOINT leftLittleDistal
                    {
                      OFFSET 0.1475273964999999 -0.008152365682999818 0.006001092492999946
                      CHANNELS 3 Yrotation Xrotation Zrotation
                      End Site
                      {
                        OFFSET 0.1475273964999999 -0.008152365682999818 0.006001092492999946
                      }
                    }
                  }
                }
                JOINT leftRingProximal
                {
                  OFFSET 0.5799399463000003 0.026911854694997794 -0.12150566991816003
                  CHANNELS 3 Yrotation Xrotation Zrotation
                  JOINT leftRingIntermediate
                  {
                    OFFSET 0.26167887460000006 -0.013480186499999602 0.010996293000000053
                    CHANNELS 3 Yrotation Xrotation Zrotation
                    JOINT leftRingDistal
                    {
                      OFFSET 0.17667108799999987 -0.008990287899999228 0.0055541023999999065
                      CHANNELS 3 Yrotation Xrotation Zrotation
                      End Site
                      {
                        OFFSET 0.17667108799999987 -0.008990287899999228 0.0055541023999999065
                      }
                    }
                  }
                }
                JOINT leftThumbProximal
                {
                  OFFSET 0.11018806699999972 -0.09448718900500053 0.17047963138184
                  CHANNELS 3 Yrotation Xrotation Zrotation
                  JOINT leftThumbIntermediate
                  {
                    OFFSET 0.31062601459999983 -0.08126270900000132 0.15443142000000007
                    CHANNELS 3 Yrotation Xrotation Zrotation
                    JOINT leftThumbDistal
                    {
                      OFFSET 0.21627175790000086 -0.08833193599999878 0.018771167799999988
                      CHANNELS 3 Yrotation Xrotation Zrotation
                      End Site
                      {
                        OFFSET 0.21627175790000086 -0.08833193599999878 0.018771167799999988
                      }
                    }
                  }
                }
              }
            }
          }
        }
        JOINT neck
        {
          OFFSET 0 1.5463305265074576 0
          CHANNELS 3 Yrotation Xrotation Zrotation
          JOINT head
          {
            OFFSET 0 0.8456443600000344 0
            CHANNELS 3 Yrotation Xrotation Zrotation
            JOINT leftEye
            {
              OFFSET 0.30408573140000006 0.5104519199999995 0.1276382305
              CHANNELS 3 Yrotation Xrotation Zrotation
              End Site
              {
                OFFSET 0.30408573140000006 0.5104519199999995 0.1276382305
              }
            }
            JOINT rightEye
            {
              OFFSET -0.30409491089999996 0.5104519199999995 0.1276379445
              CHANNELS 3 Yrotation Xrotation Zrotation
              End Site
              {
                OFFSET -0.30409491089999996 0.5104519199999995 0.1276379445
              }
            }
            JOINT jaw
            {
              OFFSET -3.155239131000001e-7 -0.11984121820000082 0.60178107
              CHANNELS 3 Yrotation Xrotation Zrotation
              End Site
              {
                OFFSET -3.155239131000001e-7 -0.11984121820000082 0.60178107
              }
            }
          }
        }
        JOINT rightShoulder
        {
          OFFSET -0.1807303465 1.5087829790000005 0
          CHANNELS 3 Yrotation Xrotation Zrotation
          JOINT rightUpperArm
          {
            OFFSET -0.5985063796536958 0 0
            CHANNELS 3 Yrotation Xrotation Zrotation
            JOINT rightLowerArm
            {
              OFFSET -2.2993322059002854 0 0
              CHANNELS 3 Yrotation Xrotation Zrotation
              JOINT rightHand
              {
                OFFSET -2.395045314457259 0 0
                CHANNELS 3 Yrotation Xrotation Zrotation
                JOINT rightIndexProximal
                {
                  OFFSET -0.5764487688300002 0.0441371204405987 0.17361932004999997
                  CHANNELS 3 Yrotation Xrotation Zrotation
                  JOINT rightIndexIntermediate
                  {
                    OFFSET -0.29573011380000047 -0.01934826376999843 -0.007698921482999974
                    CHANNELS 3 Yrotation Xrotation Zrotation
                    JOINT rightIndexDistal
                    {
                      OFFSET -0.19008373999999884 -0.012503266380000655 -0.0026365778999999897
                      CHANNELS 3 Yrotation Xrotation Zrotation
                      End Site
                      {
                        OFFSET -0.19008373999999884 -0.012503266380000655 -0.0026365778999999897
                      }
                    }
                  }
                }
                JOINT rightMiddleProximal
                {
                  OFFSET -0.5834852037300005 0.05211639405060153 0.02307162440000001
                  CHANNELS 3 Yrotation Xrotation Zrotation
                  JOINT rightMiddleIntermediate
                  {
                    OFFSET -0.33880114510000003 -0.019952774050000954 0.0002455003561999819
                    CHANNELS 3 Yrotation Xrotation Zrotation
                    JOINT rightMiddleDistal
                    {
                      OFFSET -0.20675694929999955 -0.012273788999999091 0.00030209124000002766
                      CHANNELS 3 Yrotation Xrotation Zrotation
                      End Site
                      {
                        OFFSET -0.20675694929999955 -0.012273788999999091 0.00030209124000002766
                      }
                    }
                  }
                }
                JOINT rightLittleProximal
                {
                  OFFSET -0.5346811737299992 -0.011214256288399227 -0.24363941305000003
                  CHANNELS 3 Yrotation Xrotation Zrotation
                  JOINT rightLittleIntermediate
                  {
                    OFFSET -0.21757715980000092 -0.011771559690000988 0.01201554387
                    CHANNELS 3 Yrotation Xrotation Zrotation
                    JOINT rightLittleDistal
                    {
                      OFFSET -0.1475201849000004 -0.00822055339600003 0.006082065407000015
                      CHANNELS 3 Yrotation Xrotation Zrotation
                      End Site
                      {
                        OFFSET -0.1475201849000004 -0.00822055339600003 0.006082065407000015
                      }
                    }
                  }
                }
                JOINT rightRingProximal
                {
                  OFFSET -0.5800810755299999 0.027657985680600072 -0.12066365025000003
                  CHANNELS 3 Yrotation Xrotation Zrotation
                  JOINT rightRingIntermediate
                  {
                    OFFSET -0.26166445029999974 -0.013623118409999302 0.011164098990000045
                    CHANNELS 3 Yrotation Xrotation Zrotation
                    JOINT rightRingDistal
                    {
                      OFFSET -0.17666387530000027 -0.009072900100000503 0.005668185599999959
                      CHANNELS 3 Yrotation Xrotation Zrotation
                      End Site
                      {
                        OFFSET -0.17666387530000027 -0.009072900100000503 0.005668185599999959
                      }
                    }
                  }
                }
                JOINT rightThumbProximal
                {
                  OFFSET -0.10997596379000074 -0.09577489355940072 0.16989765924999997
                  CHANNELS 3 Yrotation Xrotation Zrotation
                  JOINT rightThumbIntermediate
                  {
                    OFFSET -0.31036620999999986 -0.08229339117999834 0.15440884469999996
                    CHANNELS 3 Yrotation Xrotation Zrotation
                    JOINT rightThumbDistal
                    {
                      OFFSET -0.21631306399999906 -0.08825326400000111 0.018656797720000014
                      CHANNELS 3 Yrotation Xrotation Zrotation
                      End Site
                      {
                        OFFSET -0.21631306399999906 -0.08825326400000111 0.018656797720000014
                      }
                    }
                  }
                }
              }
            }
          }
        }
      }
    }
  }
}
MOTION
Frames: 5
Frame Time: 0.03333333333333333
5.366740723532839 -8.155963386748747 -0.33940161970233934 180 -85.99556960093058 180 -0.3632363807246267 -32.194647089009486 53.537905194917194 -143.70047482662096 83.70259465602815 -132.01883065921294 0.7901993652906811 4.315405313643094 -2.027990306700995 0 0 0 -0.6837869130796703 -33.35608423612941 -53.40151700005173 152.60037679973286 82.59543296572734 140.95952278794567 -0.6465448517748279 2.776166608201314 0.31448373378930405 0 0 0 -0.047201099619144184 -17.11548069968264 -0.06061610906788816 -0.41651399627771934 19.375536791240503 -9.324998743411088 0 0 0 -0.1529696711426701 3.490358212058478 -0.11798996340207808 51.44371124824306 44.273093106944934 26.58338223596114 -30.503663536665655 41.06092604947125 0.29324406128680425 3.6081359585956876 -6.1842957826052904 1.0287736857867469 0 0 0 0 0 0 0 0 0 0 0 0 0 0 0 0 0 0 0 0 0 0 0 0 0 0 0 0 0 0 0 0 0 0 0 0 0 0 0 0 0 0 0 0 0 0.9744068156758252 -1.3236805532701679 -18.78785064502897 1.2222868549127146 -7.911999137234608 -1.3721620547672493 0 0 0 0 0 0 0 0 0 -14.589025077697896 2.6054737672606474 -5.683589887471672 -4.709083791478512 53.15295655330472 -3.207741892327273 3.207665126174726 40.961964223625955 -0.2935587750013923 20.463442343978034 -2.640762417314432 -5.801305664525723 0 0 0 0 0 0 0 0 0 0 0 0 0 0 0 0 0 0 0 0 0 0 0 0 0 0 0 0 0 0 0 0 0 0 0 0 0 0 0 0 0 0 0 0 0
5.366740723532839 -8.147740384340471 -0.33940161970233934 180 -85.99556960093058 180 -0.2422943663832105 -32.24746012278613 53.63333561323347 -143.70047482662096 83.70259465602815 -132.01883065921294 0.6743319288495007 4.28939822377989 -1.905267613552967 0 0 0 -0.8468943029963203 -33.488705542334614 -53.56795816934014 152.60037679973286 82.59543296572734 140.95952278794567 -0.4566038460930277 2.7578065714595463 0.09409339927060123 0 0 0 -0.04738746307434962 -17.692359769471068 -0.06005265833973975 -0.41828392676130904 20.053644322376325 -9.330186556795587 0 0 0 0.26536784228646454 3.534556150091092 0.26347357255374737 50.9641809414986 44.41998814094529 26.462790543421196 -31.067216415600438 41.07773618505491 0.3865649920732372 3.861541969233848 -6.292830767027899 0.6071885903578975 0 0 0 0 0 0 0 0 0 0 0 0 0 0 0 0 0 0 0 0 0 0 0 0 0 0 0 0 0 0 0 0 0 0 0 0 0 0 0 0 0 0 0 0 0 0.9745830382295925 -1.7997150327411022 -18.79593549677261 1.2211876182679906 -7.511440852278575 -1.3636052761218862 0 0 0 0 0 0 0 0 0 -14.589025077697896 2.6054737672606474 -5.683589887471672 -4.709083791478512 53.15295655330472 -3.207741892327273 3.207665126174726 40.961964223625955 -0.2935587750013923 20.54460672842937 -2.7609510372077612 -5.759607810396733 0 0 0 0 0 0 0 0 0 0 0 0 0 0 0 0 0 0 0 0 0 0 0 0 0 0 0 0 0 0 0 0 0 0 0 0 0 0 0 0 0 0 0 0 0
5.366740723532839 -8.139517381932196 -0.33940161970233934 180 -85.99556960093058 180 -0.12138877033879096 -32.300433176353366 53.72866986313186 -143.70047482662096 83.70259465602815 -132.01883065921294 0.5584144634067404 4.263640300734765 -1.7824989574894856 0 0 0 -1.0097769130640253 -33.62171891029899 -53.73419436091357 152.60037679973286 82.59543296572734 140.95952278794567 -0.26660183068472315 2.740176347845186 -0.12634649382762272 0 0 0 -0.04757982821638094 -18.269175428821534 -0.05948526531559865 -0.42012681101122346 20.73165440260863 -9.33541649357506 0 0 0 0.6839716603033664 3.575968313547636 0.6452327076261654 50.483032139624406 44.56614585556338 26.340176057719653 -31.630817174642136 41.095248483418885 0.4796778729372883 4.115777526430402 -6.3995004933242 0.18506787124186466 0 0 0 0 0 0 0 0 0 0 0 0 0 0 0 0 0 0 0 0 0 0 0 0 0 0 0 0 0 0 0 0 0 0 0 0 0 0 0 0 0 0 0 0 0 0.9748267191571093 -2.275716603284858 -18.804021923297086 1.2201490355683526 -7.1109051662087115 -1.3550650157112893 0 0 0 0 0 0 0 0 0 -14.589025077697896 2.6054737672606474 -5.683589887471672 -4.709083791478512 53.15295655330472 -3.207741892327273 3.207665126174726 40.961964223625955 -0.2935587750013923 20.625690215480997 -2.8811956280347664 -5.71807750057266 0 0 0 0 0 0 0 0 0 0 0 0 0 0 0 0 0 0 0 0 0 0 0 0 0 0 0 0 0 0 0 0 0 0 0 0 0 0 0 0 0 0 0 0 0
5.366740723532839 -8.131294111131648 -0.33940161970233934 180 -85.99556960093058 180 -0.0005209748520200134 -32.35357061825292 53.82393389813231 -143.70047482662096 83.70259465602815 -132.01883065921294 0.44244690057174163 4.238128945829685 -1.6596827248344697 0 0 0 -1.1724454353224887 -33.75511455123428 -53.900228531333454 152.60037679973286 82.59543296572734 140.95952278794567 -0.07654444482899155 2.7232784675538593 -0.34683180257034724 0 0 0 -0.04778039858728908 -18.845911832706452 -0.05891327974498997 -0.4220450243415188 21.409521931892115 -9.340691438863114 0 0 0 1.1028040383013495 3.614589643770525 1.02724953054379 50.00027735688665 44.71154722442185 26.215544645053658 -32.19442953243339 41.11343631069205 0.5725628139100783 4.3708252497318485 -6.50429557945739 -0.23757014583792904 0 0 0 0 0 0 0 0 0 0 0 0 0 0 0 0 0 0 0 0 0 0 0 0 0 0 0 0 0 0 0 0 0 0 0 0 0 0 0 0 0 0 0 0 0 0.9751378619391569 -2.7516700257085707 -18.812117557630298 1.2191718659805806 -6.710395680589795 -1.346539413768067 0 0 0 0 0 0 0 0 0 -14.589025077697896 2.6054737672606474 -5.683589887471672 -4.709083791478512 53.15295655330472 -3.207741892327273 3.207665126174726 40.961964223625955 -0.2935587750013923 20.706694021312682 -3.0014999429011864 -5.676713865695705 0 0 0 0 0 0 0 0 0 0 0 0 0 0 0 0 0 0 0 0 0 0 0 0 0 0 0 0 0 0 0 0 0 0 0 0 0 0 0 0 0 0 0 0 0
5.366740723532839 -8.123071108723373 -0.33940161970233934 180 -85.99556960093058 180 0.12031551156308463 -32.40690514438858 53.91914586196541 -143.70047482662096 83.70259465602815 -132.01883065921294 0.32643101938560065 4.21286584170055 -1.5368223442678004 0 0 0 -1.3348913619254765 -33.888903201931605 -54.066059461598556 152.60037679973286 82.59543296572734 140.95952278794567 0.11356373842716486 2.7071116161046067 -0.567357315406408 0 0 0 -0.047986032702680995 -19.422525521290996 -0.058338363475360665 -0.42403873880034 22.087198602574674 -9.34601738540351 0 0 0 1.521823867791278 3.650415954031572 1.4094827471176996 49.51591729012473 44.85619229760083 26.088891622561565 -32.75802195405787 41.132313832711006 0.6652121867452148 4.626660834244894 -6.607200171756712 -0.6607000553417688 0 0 0 0 0 0 0 0 0 0 0 0 0 0 0 0 0 0 0 0 0 0 0 0 0 0 0 0 0 0 0 0 0 0 0 0 0 0 0 0 0 0 0 0 0 0.9755165466563809 -3.227555306665864 -18.820213198549183 1.218254990503372 -6.309927571273099 -1.3380290881296588 0 0 0 0 0 0 0 0 0 -14.589025077697896 2.6054737672606474 -5.683589887471672 -4.709083791478512 53.15295655330472 -3.207741892327273 3.207665126174726 40.961964223625955 -0.2935587750013923 20.787617377899778 -3.121860042648987 -5.635514258380674 0 0 0 0 0 0 0 0 0 0 0 0 0 0 0 0 0 0 0 0 0 0 0 0 0 0 0 0 0 0 0 0 0 0 0 0 0 0 0 0 0 0 0 0 0
